<svg xmlns="http://www.w3.org/2000/svg" width="99" height="99" viewBox="0 0 99 99">
  <g id="Groupe_275" data-name="Groupe 275" transform="translate(-911 -18)">
    <g id="Groupe_257" data-name="Groupe 257" transform="translate(-111 17.69)">
      <g id="willpower" transform="translate(1040.079 17.159)">
        <path id="Tracé_3392" data-name="Tracé 3392" d="M193.852,93.7l2.416-2.953a5.04,5.04,0,0,0,1.137-3.183V78.633a6.408,6.408,0,0,0-3.669-5.8V69.247a4.408,4.408,0,0,0-7.871-2.73,4.4,4.4,0,0,0-6.921,0,4.4,4.4,0,0,0-6.921,0,4.408,4.408,0,0,0-7.871,2.73v6.927a4.382,4.382,0,0,0,.568,2.161V86.96a.95.95,0,0,0,1.9,0V80.133a4.4,4.4,0,0,0,5.4-1.229,4.4,4.4,0,0,0,6.921,0,4.4,4.4,0,0,0,5.4,1.232,4.162,4.162,0,0,0,1.883.449h1.021l-.2,2.5h-1.29a7.652,7.652,0,0,0-7.626,7.173l-.135,2.2a.95.95,0,0,0,.89,1.006l.059,0a.95.95,0,0,0,.947-.892l.135-2.2a5.749,5.749,0,0,1,5.73-5.389h2.168a.95.95,0,0,0,.947-.875l.28-3.53h.174a.95.95,0,1,0,0-1.9h-3.1a2.29,2.29,0,0,1,0-4.58h4.752a4.528,4.528,0,0,1,4.528,4.528v8.933a3.135,3.135,0,0,1-.707,1.98L192.382,92.5a.95.95,0,0,0,1.47,1.2ZM168.563,78.685a2.513,2.513,0,0,1-2.51-2.51V69.247a2.51,2.51,0,0,1,5.021,0v6.927A2.513,2.513,0,0,1,168.563,78.685Zm6.921,0a2.513,2.513,0,0,1-2.51-2.51V69.247a2.51,2.51,0,1,1,5.021,0v6.927a2.513,2.513,0,0,1-2.51,2.51Zm6.551-2.29a4.164,4.164,0,0,0,.671,2.27,2.5,2.5,0,0,1-2.811-2.491V69.247a2.51,2.51,0,1,1,5.021,0v3.169A4.2,4.2,0,0,0,182.035,76.4Zm4.781-4.19V69.247a2.51,2.51,0,1,1,5.021,0v3.017a6.325,6.325,0,0,0-.859-.059h-4.162Z" transform="translate(-144.28 -56.624)" fill="#fff"/>
        <path id="Tracé_3393" data-name="Tracé 3393" d="M353.291,305.457a.95.95,0,0,0-1.337.134l-1.615,1.974a2.338,2.338,0,0,0-.528,1.477v21.576a.95.95,0,1,0,1.9,0V309.042a.434.434,0,0,1,.1-.274l1.616-1.974A.95.95,0,0,0,353.291,305.457Z" transform="translate(-306.42 -266.576)" fill="#fff"/>
        <path id="Tracé_3394" data-name="Tracé 3394" d="M172.522,271.625a6.5,6.5,0,0,1-1.989-4.667V264.92a.95.95,0,0,0-1.9,0v2.037A8.41,8.41,0,0,0,171.206,273l.673.646a.889.889,0,0,1,.272.638v20.19a.95.95,0,0,0,1.9,0v-20.19a2.8,2.8,0,0,0-.856-2.009Z" transform="translate(-148.192 -230.532)" fill="#fff"/>
        <path id="Tracé_3395" data-name="Tracé 3395" d="M405.518,298.735l-6.033-7.86a1.221,1.221,0,0,0-1.937,0l-6.033,7.861a1.221,1.221,0,0,0,.968,1.964h1.792v16.869a.95.95,0,1,0,1.9,0V299.749a.95.95,0,0,0-.95-.95h-1.364l4.655-6.065,4.655,6.065h-1.364a.95.95,0,0,0-.95.95v17.807a.95.95,0,0,0,1.9,0V300.7h1.792a1.221,1.221,0,0,0,.968-1.964Z" transform="translate(-342.62 -253.612)" fill="#fff"/>
        <path id="Tracé_3396" data-name="Tracé 3396" d="M15.489,290.875a1.22,1.22,0,0,0-1.937,0l-6.033,7.861a1.221,1.221,0,0,0,.969,1.964H10.28v7.758a.95.95,0,0,0,1.9,0v-8.708a.95.95,0,0,0-.95-.95H9.866l4.655-6.065,4.655,6.065H17.811a.95.95,0,0,0-.95.95v17.807a.95.95,0,0,0,1.9,0V300.7h1.792a1.221,1.221,0,0,0,.968-1.964Z" transform="translate(-7.266 -253.612)" fill="#fff"/>
        <path id="Tracé_3397" data-name="Tracé 3397" d="M32.008,457.455a.95.95,0,0,0-.95.95v5.059a.95.95,0,0,0,1.9,0v-5.059A.95.95,0,0,0,32.008,457.455Z" transform="translate(-28.044 -399.508)" fill="#fff"/>
        <path id="Tracé_3398" data-name="Tracé 3398" d="M44.731.478a1.22,1.22,0,0,0-1.937,0L36.761,8.338A1.221,1.221,0,0,0,37.73,10.3h1.792V27.171a.95.95,0,1,0,1.9,0V9.352a.95.95,0,0,0-.95-.95H39.108l4.655-6.065L48.417,8.4H47.053a.95.95,0,0,0-.95.95V27.159a.95.95,0,0,0,1.9,0V10.3h1.792a1.221,1.221,0,0,0,.968-1.964Z" transform="translate(-32.804 0)" fill="#fff"/>
      </g>
      <g id="Ellipse_123" data-name="Ellipse 123" transform="translate(1022 0.31)" fill="none" stroke="#fff" stroke-width="2">
        <circle cx="49.5" cy="49.5" r="49.5" stroke="none"/>
        <circle cx="49.5" cy="49.5" r="48.5" fill="none"/>
      </g>
    </g>
  </g>
</svg>
