<svg xmlns="http://www.w3.org/2000/svg" width="99" height="99" viewBox="0 0 99 99">
  <g id="Groupe_274" data-name="Groupe 274" transform="translate(-337 -18)">
    <g id="group" transform="translate(352.043 38.271)">
      <g id="Groupe_158" data-name="Groupe 158" transform="translate(53.636 31.56)">
        <g id="Groupe_157" data-name="Groupe 157">
          <path id="Tracé_3381" data-name="Tracé 3381" d="M403.823,273.32h-5.33a13.864,13.864,0,0,1,.84,4.765v20.143a5.939,5.939,0,0,1-.342,1.99H407.8a5.976,5.976,0,0,0,5.969-5.969V283.268A9.959,9.959,0,0,0,403.823,273.32Z" transform="translate(-398.494 -273.32)" fill="rgba(255,255,255,0)" stroke="#fff" stroke-width="3"/>
        </g>
      </g>
      <g id="Groupe_160" data-name="Groupe 160" transform="translate(0 31.561)">
        <g id="Groupe_159" data-name="Groupe 159">
          <path id="Tracé_3382" data-name="Tracé 3382" d="M14.438,278.086a13.863,13.863,0,0,1,.84-4.765H9.948A9.959,9.959,0,0,0,0,283.269V294.25a5.976,5.976,0,0,0,5.969,5.969H14.78a5.942,5.942,0,0,1-.342-1.99Z" transform="translate(0 -273.321)" fill="rgba(255,255,255,0)" stroke="#fff" stroke-width="3"/>
        </g>
      </g>
      <g id="Groupe_162" data-name="Groupe 162" transform="translate(18.417 26.378)">
        <g id="Groupe_161" data-name="Groupe 161">
          <path id="Tracé_3383" data-name="Tracé 3383" d="M158.961,234.815H146.777a9.959,9.959,0,0,0-9.948,9.948v20.142a1.99,1.99,0,0,0,1.99,1.99h28.1a1.99,1.99,0,0,0,1.99-1.99V244.763A9.959,9.959,0,0,0,158.961,234.815Z" transform="translate(-136.829 -234.815)" fill="rgba(255,255,255,0)" stroke="#fff" stroke-width="3"/>
        </g>
      </g>
      <g id="Groupe_164" data-name="Groupe 164" transform="translate(22.493)">
        <g id="Groupe_163" data-name="Groupe 163">
          <path id="Tracé_3384" data-name="Tracé 3384" d="M179.078,38.84A11.962,11.962,0,1,0,191.042,50.8,11.977,11.977,0,0,0,179.078,38.84Z" transform="translate(-167.114 -38.84)" fill="rgba(255,255,255,0)" stroke="#fff" stroke-width="3"/>
        </g>
      </g>
      <g id="Groupe_166" data-name="Groupe 166" transform="translate(4.502 10.341)">
        <g id="Groupe_165" data-name="Groupe 165">
          <path id="Tracé_3385" data-name="Tracé 3385" d="M42.39,121.689a8.943,8.943,0,1,0,8.947,8.947A8.957,8.957,0,0,0,42.39,121.689Z" transform="translate(-33.443 -121.689)" fill="rgba(255,255,255,0)" stroke="#fff" stroke-width="3"/>
        </g>
      </g>
      <g id="Groupe_168" data-name="Groupe 168" transform="translate(46.518 10.341)">
        <g id="Groupe_167" data-name="Groupe 167">
          <path id="Tracé_3386" data-name="Tracé 3386" d="M354.554,121.689a8.947,8.947,0,1,0,8.947,8.947A8.957,8.957,0,0,0,354.554,121.689Z" transform="translate(-345.607 -121.689)" fill="rgba(255,255,255,0)" stroke="#fff" stroke-width="3"/>
        </g>
      </g>
    </g>
    <g id="Ellipse_124" data-name="Ellipse 124" transform="translate(337 18)" fill="none" stroke="#fff" stroke-width="2">
      <circle cx="49.5" cy="49.5" r="49.5" stroke="none"/>
      <circle cx="49.5" cy="49.5" r="48.5" fill="none"/>
    </g>
  </g>
</svg>
