<svg xmlns="http://www.w3.org/2000/svg" width="97.534" height="97.481" viewBox="0 0 97.534 97.481">
  <g id="Groupe_276" data-name="Groupe 276" transform="translate(-1483.638 -20.519)">
    <g id="iTGwo6.tif" transform="translate(1484.639 21.52)">
      <g id="Groupe_255" data-name="Groupe 255" transform="translate(0)">
        <g id="Groupe_254" data-name="Groupe 254">
          <path id="Tracé_3470" data-name="Tracé 3470" d="M212.284,383.062a47.768,47.768,0,1,1,95.529.983c-.34,26.019-21.115,47.168-48.348,46.883C233.16,430.654,212.605,409.742,212.284,383.062Zm53.088,24.671c5.8-.111,7.662-3.2,10.062-5.476,1.918-1.815,1.875-3.8.129-5.665-1.786-1.912-3.645-3.763-5.571-5.534-1.875-1.724-3.837-1.717-5.7.123a15.491,15.491,0,0,0-1.779,1.786c-1.294,1.79-2.8,1.7-4.256.419a107.974,107.974,0,0,1-8.994-8.34c-3.35-3.707-3.163-4.041.2-7.666,2.227-2.4,2.527-4.041.7-6.126a42.349,42.349,0,0,0-6-5.867,4.7,4.7,0,0,0-4.013-.545,11.171,11.171,0,0,0-6.32,11.922,21.053,21.053,0,0,0,1.738,5.291,45.118,45.118,0,0,0,19,21.089C258.471,405.361,262.869,406.692,265.372,407.733Zm20.233-26.194c-.657-12.264-13.343-24.711-26.653-26.151-1.984,3.34-1.554,4.457,1.941,5.463,9.562,2.751,16.062,8.725,19.089,18.3C281.287,383.277,281.367,383.313,285.606,381.539Zm-15.045,1.617c3.843.014,4.478-.783,3.418-3.675a19.476,19.476,0,0,0-13.478-12.7c-1.414-.41-2.666-.665-2.984,1.209-.257,1.515-.7,3.153,1.58,3.764a13.9,13.9,0,0,1,10.157,9.835C269.493,382.343,270.339,382.9,270.561,383.156Z" transform="translate(-212.284 -335.451)" fill="none" stroke="#fff" stroke-width="2"/>
        </g>
      </g>
    </g>
  </g>
</svg>
