<svg xmlns="http://www.w3.org/2000/svg" xmlns:xlink="http://www.w3.org/1999/xlink" width="98.07" height="98.031" viewBox="0 0 98.07 98.031">
  <defs>
    <filter id="Tracé_3368" x="0" y="0" width="98.07" height="98.031" filterUnits="userSpaceOnUse">
      <feOffset dy="3" input="SourceAlpha"/>
      <feGaussianBlur stdDeviation="3" result="blur"/>
      <feFlood flood-opacity="0.161"/>
      <feComposite operator="in" in2="blur"/>
      <feComposite in="SourceGraphic"/>
    </filter>
  </defs>
  <g id="Groupe_138" data-name="Groupe 138" transform="translate(-360.242 -370.954)">
    <g transform="matrix(1, 0, 0, 1, 360.24, 370.95)" filter="url(#Tracé_3368)">
      <path id="Tracé_3368-2" data-name="Tracé 3368" d="M422.2,456.985H396.357c-.7-.054-1.4-.092-2.1-.164a64.308,64.308,0,0,1-7.44-.834c-9.014-2.021-14.568-7.624-16.621-16.647a53.947,53.947,0,0,1-.91-11.593q-.091-10.8,0-21.6a54.666,54.666,0,0,1,.93-11.748c1.91-8.373,6.933-13.875,15.224-16.285a34.479,34.479,0,0,1,9.672-1.153c10.123,0,20.246-.027,30.368.085a32.345,32.345,0,0,1,6.954.9,20.214,20.214,0,0,1,14.911,12.663,31.335,31.335,0,0,1,1.941,11.877c.016,9.21.053,18.421-.024,27.63a60.517,60.517,0,0,1-.643,8.325,20.714,20.714,0,0,1-4.847,10.667c-4.3,4.993-9.96,7.075-16.35,7.554C425.685,456.793,423.941,456.879,422.2,456.985Zm-12.859-7.1c2.9-.142,5.8-.083,8.693-.156,4.01-.1,8.047.066,12.009-.733,5.723-1.153,9.5-4.482,11.118-10.157a29.988,29.988,0,0,0,.9-7.977q.118-12.173.067-24.346a52.19,52.19,0,0,0-.671-10.209c-1.178-5.854-4.556-9.693-10.417-11.216a42.185,42.185,0,0,0-10.181-.9c-6.628-.08-13.259-.049-19.888-.031a68.1,68.1,0,0,0-11.861.642c-6.022,1.077-10.018,4.454-11.6,10.487a35.359,35.359,0,0,0-.866,8.77q-.1,12.877,0,25.756a51.429,51.429,0,0,0,.632,7.624,13.278,13.278,0,0,0,6.273,9.646,17.3,17.3,0,0,0,8.569,2.363C397.861,449.666,403.6,449.748,409.34,449.888Z" transform="translate(-360.24 -370.95)" fill="#fff"/>
    </g>
    <path id="Tracé_3371" data-name="Tracé 3371" d="M418.78,405.177a21.12,21.12,0,1,1-21.093,21.192A21.2,21.2,0,0,1,418.78,405.177Zm-13.606,21.106a13.642,13.642,0,1,0,13.71-13.629A13.584,13.584,0,0,0,405.174,426.283Z" transform="translate(-9.465 -9.391)" fill="#fff"/>
    <path id="Tracé_3372" data-name="Tracé 3372" d="M456.775,406.376a4.631,4.631,0,0,1-4.67-4.695,4.684,4.684,0,0,1,4.7-4.7,4.733,4.733,0,0,1,4.7,4.721A4.683,4.683,0,0,1,456.775,406.376Z" transform="translate(-25.951 -6.273)" fill="#fff"/>
  </g>
</svg>
