<svg xmlns="http://www.w3.org/2000/svg" width="401.212" height="402.536" viewBox="0 0 401.212 402.536">
  <g id="Groupe_275" data-name="Groupe 275" transform="translate(-761.49 -246.395)">
    <g id="Groupe_156" data-name="Groupe 156" transform="translate(761.49 246.395)">
      <g id="fond_vert" data-name="fond vert" transform="translate(0 0)">
        <path id="Ellipse_23" data-name="Ellipse 23" d="M200.606,0C311.4,0,401.212,89.814,401.212,200.606S311.4,401.212,200.606,401.212,0,311.4,0,200.606,89.814,0,200.606,0Z" fill="#0c3922"/>
        <circle id="Ellipse_46" data-name="Ellipse 46" cx="156.018" cy="156.018" r="156.018" transform="translate(15.159 12.892)" fill="#0c3922"/>
      </g>
      <rect id="Rectangle_81" data-name="Rectangle 81" width="36.003" height="56.488" rx="1" transform="translate(75.168 50.391) rotate(-18.419)" fill="#e8e8e8"/>
      <rect id="Rectangle_83" data-name="Rectangle 83" width="36.003" height="56.488" rx="1" transform="translate(290.4 116.09) rotate(-172.037)" fill="#e8e8e8"/>
      <g id="Calque_8" data-name="Calque 8" transform="translate(127.919 382.958)">
        <path id="Tracé_107" data-name="Tracé 107" d="M782.609,110.469a202,202,0,0,0,73.2,13.686,201.845,201.845,0,0,0,80.843-16.815c.322-.849.83-2.2.83-2.2l-152.246-.566Z" transform="translate(-782.609 -104.577)" fill="#fff"/>
      </g>
      <g id="Calque_1" data-name="Calque 1" transform="translate(48.57 47.808)">
        <path id="Soustraction_8" data-name="Soustraction 8" d="M802.735-30.6c2.559,0,4,.426,4.32,1.264.492,1.335-1.928,3.39-3.531,4.75-.316.268-.586.5-.793.687-1.81,1.662-.019,4.388,0,4.416l3.06,2.3c.153.593,3.656,14.548,0,17.825-1.344,1.205-4.077,3.3-7.243,5.718-5.414,4.152-12.175,9.317-13.627,11.424-1.121,1.622-3.465,10.9-5.341,21.13-1.064,5.805-3.439,19.986-2.479,26.245h0c.292,0,11.28-10.89,26.756-10.635,2.319-.657,22.154-.087,24.538-.431,7.862-1.459,19.741-3.665,23.776-6.12-.012,0,.019-.059.092-.179,1.765-2.825,5.756-12.86,4.689-44.712a44.13,44.13,0,0,1,4.5-22.495,31.233,31.233,0,0,1,11.174-11.881,37.88,37.88,0,0,1,16.641-5.447,10.175,10.175,0,0,1,4.637-1.05c3.924,0,9.779,2.024,15.39,11.671,6.672,11.466,11.363,30.8,13.943,57.459a46.048,46.048,0,0,0,2.119,4.331C928.92,42.659,936.323,57.2,943.068,73.1c8.342,19.654,12.947,34.96,13.719,45.491.05.188.36.28.942.28a49.7,49.7,0,0,0,5.9-.765h.014c1.245-.2,2.655-.426,4.165-.647a116.719,116.719,0,0,1,16.772-1.412,57.108,57.108,0,0,1,14.595,1.707,30.97,30.97,0,0,1,12.745,6.551c-.916.04-1.054,1.078-1.247,2.514a10.455,10.455,0,0,1-3.147,7.017c-2.976,2.712-8.357,4.11-15.993,4.157-.235.217-.826.8-1.629,1.6-3.236,3.232-9.969,9.958-13.521,11.707.045-.092.057-.162.028-.207s-.089-.066-.19-.066a15.951,15.951,0,0,0-3.338,1.151c-.471.188-.958.386-1.462.584a21.117,21.117,0,0,1-6.245,1.737c-.414.026-.812,1.655-1.177,1.45,2.118,4.061,10.908,46.6,16.732,75.9,3.156,15.883,5.65,28.427,5.948,28.914-.184.355-.567,4.708-1.052,10.242-.85,9.652-2.013,22.881-3.176,27.761h0l.01-.009h-151.6c1.283-46.845,1.732-72.162,1.337-75.27-.087.384-.582.6-1.354.6a6.935,6.935,0,0,1-4.571-1.977,4.588,4.588,0,0,1-1.377-3.4c.167-.523,2.931-14.52,5.72-29.677,2.5-13.6,5.506-30.732,5.6-35.122h-.024a60.156,60.156,0,0,1-2.065-9.55c-2.957-15.772-8.46-45.1-15.737-56.673a.169.169,0,0,1-.03.162c-.572.826-7.794,2.436-18.994,2.436-11.064,0-32.335-1.7-50.463-13.107a210.84,210.84,0,0,1,8.526-34.863c4.967-15.449,13.155-35.955,24.68-48.992q1.373-1.554,2.808-2.959a.247.247,0,0,1-.16-.2,1.743,1.743,0,0,1,.245-.93c1.363-2.91,7.85-10.508,10.584-13.131" transform="translate(-748.901 37.792)" fill="#fff"/>
        <path id="Tracé_104" data-name="Tracé 104" d="M766.333-17.74s-6.313-5.706-4.9-9.753c0-.132,1.956-2.848,4.129-1.436.327.435,2.218,4.185,4.784,2.935a11.311,11.311,0,0,0,3.571-2.462L769.8-18.43Z" transform="translate(-732.212 49.245)" fill="#fff"/>
        <path id="Tracé_37" data-name="Tracé 37" d="M778.435,25.378s39.06-.567,55.938-16.619c1.177.979,10.716,40.254,0,71.743-1.182,1.474,2.135,98.972-16.8,115.013s-26.365,29.223-26.365,29.223V162.693s-6.664-2.493-6.822-6.132c-.014.038-.023.056-.03.054q-.315-.06,11.706-63.307Q787.253,59.343,778.435,25.378Z" transform="translate(-708.912 100.824)" fill="#cbd9ca"/>
        <path id="Tracé_39" data-name="Tracé 39" d="M801.166,3.471c-3.15-1.05,17.711,2.735,27.174,0C829.5,2.44,850.953-5.757,851.8-8.214s8.266,15.682,8.266,15.682-5.369,7.159-20.918,7.316S804.316,4.519,801.166,3.471Z" transform="translate(-677.728 77.532)" fill="#cbd9ca"/>
        <path id="Tracé_40" data-name="Tracé 40" d="M826.027,45.713s10.414,30.819,3.425,55.632-15.513,57.6-25.115,67.633" transform="translate(-673.84 150.86)" fill="none" stroke="#cbd9ca" stroke-width="0.75"/>
        <path id="Tracé_41" data-name="Tracé 41" d="M824.889,53.177s3.568,5.356,31.61,2.519c12.826-1.148,17.761-4.229,27.738-11.611,2.295-1.75,5.3-4.9,6.43-7.412" transform="translate(-648.09 138.334)" fill="none" stroke="#cbd9ca" stroke-width="1"/>
        <path id="Tracé_38" data-name="Tracé 38" d="M809.693,18.695s-2.8,5.04-26.537,1.366-30.5-8.268-30.5-8.268" transform="translate(-745.385 103.233)" fill="none" stroke="#cbd9ca" stroke-width="0.5"/>
      </g>
      <rect id="Rectangle_144" data-name="Rectangle 144" width="36.003" height="56.488" transform="translate(328.899 201.987) rotate(154)" fill="#e8e8e8"/>
    </g>
  </g>
</svg>
