<svg xmlns="http://www.w3.org/2000/svg" xmlns:xlink="http://www.w3.org/1999/xlink" width="98" height="98.02" viewBox="0 0 98 98.02">
  <defs>
    <filter id="Tracé_3373" x="0" y="0" width="98" height="98.02" filterUnits="userSpaceOnUse">
      <feOffset dy="3" input="SourceAlpha"/>
      <feGaussianBlur stdDeviation="3" result="blur"/>
      <feFlood flood-opacity="0.161"/>
      <feComposite operator="in" in2="blur"/>
      <feComposite in="SourceGraphic"/>
    </filter>
  </defs>
  <g id="Groupe_139" data-name="Groupe 139" transform="translate(-346.879 -86.936)">
    <g transform="matrix(1, 0, 0, 1, 346.88, 86.94)" filter="url(#Tracé_3373)">
      <path id="Tracé_3373-2" data-name="Tracé 3373" d="M422.6,172.956H369.162l-1.131-.228a14.979,14.979,0,0,1-12.146-14.77q-.017-25,.006-50a15.634,15.634,0,0,1,.216-2.795,14.974,14.974,0,0,1,14.624-12.212q25.153-.028,50.3,0a14.937,14.937,0,0,1,14.032,10.042c.361,1.047.545,2.155.81,3.234v53.447a2.751,2.751,0,0,0-.148.436c-.937,5.848-4.29,9.754-9.7,11.95A26.183,26.183,0,0,1,422.6,172.956Zm-37.209-26.083a22.125,22.125,0,0,1-15.92,4.588c.27.192.367.271.473.335a30.793,30.793,0,0,0,20.288,4.17,28.6,28.6,0,0,0,16.523-7.512,31.682,31.682,0,0,0,10.356-24.206,1.391,1.391,0,0,1,.435-.886c.732-.7,1.571-1.293,2.271-2.022.892-.928,1.689-1.948,2.635-3.053l-5.911,1.616-.12-.2a10.572,10.572,0,0,0,4.595-5.92,22.949,22.949,0,0,1-6.334,2.5.959.959,0,0,1-1.016-.3,10.345,10.345,0,0,0-9.706-2.782,10.725,10.725,0,0,0-8.707,10.925c.009.737.095,1.474.15,2.3a31.692,31.692,0,0,1-22.618-11.508c-2.462,5.693-1.818,10.559,3.075,14.559l-.126.239-4.883-1.318c.423,5.547,3.465,9,8.738,10.653l-.038.238h-4.332C377.127,143.922,380.381,146.458,385.389,146.874Z" transform="translate(-346.88 -86.94)" fill="#fff"/>
    </g>
  </g>
</svg>
